<svg id="visual" viewBox="0 0 960 540" width="960" height="540" xmlns="http://www.w3.org/2000/svg" xmlns:xlink="http://www.w3.org/1999/xlink" version="1.1"><rect x="0" y="0" width="960" height="540" fill="#dff1d9"></rect><defs><linearGradient id="grad1_0" x1="43.8%" y1="0%" x2="100%" y2="100%"><stop offset="14.444444444444446%" stop-color="#dff1d9" stop-opacity="1"></stop><stop offset="85.55555555555554%" stop-color="#dff1d9" stop-opacity="1"></stop></linearGradient></defs><defs><linearGradient id="grad2_0" x1="0%" y1="0%" x2="56.3%" y2="100%"><stop offset="14.444444444444446%" stop-color="#dff1d9" stop-opacity="1"></stop><stop offset="85.55555555555554%" stop-color="#dff1d9" stop-opacity="1"></stop></linearGradient></defs><g transform="translate(960, 0)"><path d="M0 324C-37.4 307.6 -74.9 291.2 -115.2 278.1C-155.5 264.9 -198.6 255 -229.1 229.1C-259.6 203.2 -277.3 161.4 -291 120.5C-304.7 79.7 -314.4 39.9 -324 0L0 0Z" fill="#0e4f55"></path></g><g transform="translate(0, 540)"><path d="M0 -324C36.7 -305.3 73.4 -286.5 113.3 -273.5C153.2 -260.4 196.3 -253.1 229.1 -229.1C261.9 -205.1 284.3 -164.6 298.4 -123.6C312.5 -82.7 318.3 -41.3 324 0L0 0Z" fill="#0e4f55"></path></g></svg>